<svg xmlns="http://www.w3.org/2000/svg" height="20" viewBox="0 -960 960 960" width="20"><path d="M483.962-124.078 649.5-556.038h58.037l165.538 431.96h-54.883l-42.5-112.962H580.73l-42.501 112.962h-54.267ZM169.385-234.501l-33.23-34.422 188.923-187.308q-36.923-39.731-71.577-85.115-34.654-45.385-51.385-82.539h58.383q13.5 27.692 37.923 60.424 24.424 32.731 58.885 71.308 50.847-55.039 83.732-99.732 32.885-44.692 51.885-100.077H83.771v-47.96h252.345v-80.614h47.96v80.614h252.153v47.96h-88.96q-20.77 66.5-59.577 118.058-38.808 51.557-97.962 116.596l87.538 86.924-19.384 49.575-100.577-100.384-187.922 186.692Zm429.075-49.692h159.309l-77.655-205.962-81.654 205.962Z"/></svg>